# xmcd
#
# Track frame offsets: 
#        150
#        10639
#        21091
#        31954
#        42786
#        53876
#        63631
#        75402
#        83653
#        93122
#        105295
#        117329
#        126646
#        136188
#        147939
#        158635
#        167319
#        177702
#        187660
#        197086
#        207122
#        215936
#        226891
#        239466
#        248807
#        261387
#        274205
#        285920
#        297958
#        309299
#        318737
#        330310
#        340962
#
# Disc length: 4713 seconds
#
# Revision: 3
# Processed by: cddbd v1.5.2PL0 Copyright (c) Steve Scherf et al.
# Submitted via: ExactAudioCopy v0.95b4
#
DISCID=cd126721
DTITLE=Freddie Hart - Juke Joint Boogie
DYEAR=1900
DGENRE=
TTITLE0=Juke Joint Boogie (1953)
TTITLE1=Whole Hog Or None (1953)
TTITLE2=Loose Talk (1953)
TTITLE3=From Canada To Tennessee (1955)
TTITLE4=Please Don't Tell Her (1954)
TTITLE5=Heart Trouble (1953) 
TTITLE6=Caught At Last (1954)
TTITLE7=Snatch It And Grab It (1956)
TTITLE8=Dig Boy Dig (1956)
TTITLE9=Drink Up And Go Home (1956)
TTITLE10=Extra (1956)
TTITLE11=On The Prowl (1956)
TTITLE12=Dance And Sing (1958)
TTITLE13=Blue (1956)
TTITLE14=Baby Don't Leave (1957)
TTITLE15=Heaven Only Knows (1957)
TTITLE16=Say No More (1956)
TTITLE17=From A Boy To A Man (1958)
TTITLE18=Loving In Vain (1958)
TTITLE19=I'm No Angel (1958)
TTITLE20=Farther Than My Eyes Can See (1959) 
TTITLE21=I'm Gonna Live For Today (1956) 
TTITLE22=Chain Gang (1959) 
TTITLE23=Mr. Fool (1959) 
TTITLE24=The Key's In The Mailbox (1959) 
TTITLE25=My Last Dime (1959) 
TTITLE26=Careful (1958) 
TTITLE27=Do My Heart A Favor (1960) 
TTITLE28=Lyin' Again (1960) 
TTITLE29=Some Do, Some Don't, Some Will, Some Won't (1960) 
TTITLE30=Heart Attack (1961) 
TTITLE31=Midnight Date (1958) 
TTITLE32=The Wall (1959) 
EXTD=
EXTT0=
EXTT1=
EXTT2=
EXTT3=
EXTT4=
EXTT5=
EXTT6=
EXTT7=
EXTT8=
EXTT9=
EXTT10=
EXTT11=
EXTT12=
EXTT13=
EXTT14=
EXTT15=
EXTT16=
EXTT17=
EXTT18=
EXTT19=
EXTT20=
EXTT21=
EXTT22=
EXTT23=
EXTT24=
EXTT25=
EXTT26=
EXTT27=
EXTT28=
EXTT29=
EXTT30=
EXTT31=
EXTT32=
PLAYORDER=
